<mxfile host="app.diagrams.net" modified="2020-10-12T08:46:18.997Z" agent="5.0 (Windows NT 10.0; Win64; x64) AppleWebKit/537.36 (KHTML, like Gecko) Chrome/85.0.4183.102 Safari/537.36" etag="76Iu09jvJs9sBRRV10B-" version="13.7.9" type="github">
  <diagram name="Page-1" id="97916047-d0de-89f5-080d-49f4d83e522f">
    <mxGraphModel dx="2607" dy="1293" grid="1" gridSize="10" guides="1" tooltips="1" connect="1" arrows="1" fold="1" page="1" pageScale="1.5" pageWidth="1169" pageHeight="827" background="#ffffff" math="0" shadow="0">
      <root>
        <mxCell id="0" />
        <mxCell id="1" parent="0" />
        <mxCell id="J0vHKWgux2NWpjz-rFp9-121" value="" style="edgeStyle=orthogonalEdgeStyle;rounded=0;orthogonalLoop=1;jettySize=auto;html=1;fontSize=30;entryX=0;entryY=0.5;entryDx=0;entryDy=0;exitX=1;exitY=0.5;exitDx=0;exitDy=0;" edge="1" parent="1" source="J0vHKWgux2NWpjz-rFp9-58" target="J0vHKWgux2NWpjz-rFp9-59">
          <mxGeometry relative="1" as="geometry" />
        </mxCell>
        <mxCell id="J0vHKWgux2NWpjz-rFp9-122" style="edgeStyle=orthogonalEdgeStyle;rounded=0;orthogonalLoop=1;jettySize=auto;html=1;exitX=1;exitY=0.5;exitDx=0;exitDy=0;entryX=0;entryY=0.5;entryDx=0;entryDy=0;fontSize=30;" edge="1" parent="1" source="J0vHKWgux2NWpjz-rFp9-58" target="J0vHKWgux2NWpjz-rFp9-62">
          <mxGeometry relative="1" as="geometry" />
        </mxCell>
        <mxCell id="J0vHKWgux2NWpjz-rFp9-123" style="edgeStyle=orthogonalEdgeStyle;rounded=0;orthogonalLoop=1;jettySize=auto;html=1;exitX=1;exitY=0.5;exitDx=0;exitDy=0;entryX=0;entryY=0.5;entryDx=0;entryDy=0;fontSize=30;" edge="1" parent="1" source="J0vHKWgux2NWpjz-rFp9-58" target="J0vHKWgux2NWpjz-rFp9-63">
          <mxGeometry relative="1" as="geometry" />
        </mxCell>
        <mxCell id="J0vHKWgux2NWpjz-rFp9-124" style="edgeStyle=orthogonalEdgeStyle;rounded=0;orthogonalLoop=1;jettySize=auto;html=1;exitX=1;exitY=0.5;exitDx=0;exitDy=0;entryX=0;entryY=0.5;entryDx=0;entryDy=0;fontSize=30;" edge="1" parent="1" source="J0vHKWgux2NWpjz-rFp9-58" target="J0vHKWgux2NWpjz-rFp9-64">
          <mxGeometry relative="1" as="geometry" />
        </mxCell>
        <mxCell id="J0vHKWgux2NWpjz-rFp9-58" value="Home" style="rounded=0;whiteSpace=wrap;html=1;strokeWidth=2;fontSize=30;" vertex="1" parent="1">
          <mxGeometry x="160" y="570" width="120" height="60" as="geometry" />
        </mxCell>
        <mxCell id="J0vHKWgux2NWpjz-rFp9-75" value="" style="edgeStyle=orthogonalEdgeStyle;rounded=0;orthogonalLoop=1;jettySize=auto;html=1;fontSize=30;entryX=0;entryY=0.5;entryDx=0;entryDy=0;" edge="1" parent="1" source="J0vHKWgux2NWpjz-rFp9-59" target="J0vHKWgux2NWpjz-rFp9-67">
          <mxGeometry relative="1" as="geometry" />
        </mxCell>
        <mxCell id="J0vHKWgux2NWpjz-rFp9-59" value="Camera" style="rounded=0;whiteSpace=wrap;html=1;strokeWidth=2;fontSize=30;" vertex="1" parent="1">
          <mxGeometry x="380" y="130" width="120" height="60" as="geometry" />
        </mxCell>
        <mxCell id="J0vHKWgux2NWpjz-rFp9-81" value="" style="edgeStyle=orthogonalEdgeStyle;rounded=0;orthogonalLoop=1;jettySize=auto;html=1;fontSize=30;" edge="1" parent="1" source="J0vHKWgux2NWpjz-rFp9-61" target="J0vHKWgux2NWpjz-rFp9-73">
          <mxGeometry relative="1" as="geometry" />
        </mxCell>
        <mxCell id="J0vHKWgux2NWpjz-rFp9-61" value="Samrt Phone" style="rounded=0;whiteSpace=wrap;html=1;strokeWidth=2;fontSize=30;" vertex="1" parent="1">
          <mxGeometry x="380" y="320" width="200" height="60" as="geometry" />
        </mxCell>
        <mxCell id="J0vHKWgux2NWpjz-rFp9-107" value="" style="edgeStyle=orthogonalEdgeStyle;rounded=0;orthogonalLoop=1;jettySize=auto;html=1;fontSize=30;entryX=0;entryY=0.5;entryDx=0;entryDy=0;" edge="1" parent="1" source="J0vHKWgux2NWpjz-rFp9-62" target="J0vHKWgux2NWpjz-rFp9-84">
          <mxGeometry relative="1" as="geometry" />
        </mxCell>
        <mxCell id="J0vHKWgux2NWpjz-rFp9-62" value="Location" style="rounded=0;whiteSpace=wrap;html=1;strokeWidth=2;fontSize=30;" vertex="1" parent="1">
          <mxGeometry x="380" y="650" width="150" height="60" as="geometry" />
        </mxCell>
        <mxCell id="J0vHKWgux2NWpjz-rFp9-114" value="" style="edgeStyle=orthogonalEdgeStyle;rounded=0;orthogonalLoop=1;jettySize=auto;html=1;fontSize=30;entryX=0;entryY=0.5;entryDx=0;entryDy=0;" edge="1" parent="1" source="J0vHKWgux2NWpjz-rFp9-63" target="J0vHKWgux2NWpjz-rFp9-109">
          <mxGeometry relative="1" as="geometry" />
        </mxCell>
        <mxCell id="J0vHKWgux2NWpjz-rFp9-63" value="Resources" style="rounded=0;whiteSpace=wrap;html=1;strokeWidth=2;fontSize=30;" vertex="1" parent="1">
          <mxGeometry x="380" y="900" width="170" height="60" as="geometry" />
        </mxCell>
        <mxCell id="J0vHKWgux2NWpjz-rFp9-119" style="edgeStyle=orthogonalEdgeStyle;rounded=0;orthogonalLoop=1;jettySize=auto;html=1;exitX=1;exitY=0.5;exitDx=0;exitDy=0;entryX=0;entryY=0.5;entryDx=0;entryDy=0;fontSize=30;" edge="1" parent="1" source="J0vHKWgux2NWpjz-rFp9-64" target="J0vHKWgux2NWpjz-rFp9-111">
          <mxGeometry relative="1" as="geometry" />
        </mxCell>
        <mxCell id="J0vHKWgux2NWpjz-rFp9-120" style="edgeStyle=orthogonalEdgeStyle;rounded=0;orthogonalLoop=1;jettySize=auto;html=1;exitX=1;exitY=0.5;exitDx=0;exitDy=0;entryX=0;entryY=0.5;entryDx=0;entryDy=0;fontSize=30;" edge="1" parent="1" source="J0vHKWgux2NWpjz-rFp9-64" target="J0vHKWgux2NWpjz-rFp9-112">
          <mxGeometry relative="1" as="geometry" />
        </mxCell>
        <mxCell id="J0vHKWgux2NWpjz-rFp9-64" value="About" style="rounded=0;whiteSpace=wrap;html=1;strokeWidth=2;fontSize=30;" vertex="1" parent="1">
          <mxGeometry x="380" y="1010" width="120" height="60" as="geometry" />
        </mxCell>
        <mxCell id="J0vHKWgux2NWpjz-rFp9-78" value="" style="edgeStyle=orthogonalEdgeStyle;rounded=0;orthogonalLoop=1;jettySize=auto;html=1;fontSize=30;" edge="1" parent="1" source="J0vHKWgux2NWpjz-rFp9-66" target="J0vHKWgux2NWpjz-rFp9-70">
          <mxGeometry relative="1" as="geometry" />
        </mxCell>
        <mxCell id="J0vHKWgux2NWpjz-rFp9-66" value="Camera Recommendation" style="rounded=0;whiteSpace=wrap;html=1;strokeWidth=2;fontSize=30;" vertex="1" parent="1">
          <mxGeometry x="660" y="40" width="270" height="80" as="geometry" />
        </mxCell>
        <mxCell id="J0vHKWgux2NWpjz-rFp9-67" value="Useful&lt;br&gt;Software" style="rounded=0;whiteSpace=wrap;html=1;strokeWidth=2;fontSize=30;" vertex="1" parent="1">
          <mxGeometry x="660" y="160" width="160" height="80" as="geometry" />
        </mxCell>
        <mxCell id="J0vHKWgux2NWpjz-rFp9-69" value="Brand" style="rounded=0;whiteSpace=wrap;html=1;strokeWidth=2;fontSize=30;" vertex="1" parent="1">
          <mxGeometry x="1010" y="20" width="120" height="60" as="geometry" />
        </mxCell>
        <mxCell id="J0vHKWgux2NWpjz-rFp9-70" value="Price" style="rounded=0;whiteSpace=wrap;html=1;strokeWidth=2;fontSize=30;" vertex="1" parent="1">
          <mxGeometry x="1010" y="100" width="120" height="60" as="geometry" />
        </mxCell>
        <mxCell id="J0vHKWgux2NWpjz-rFp9-71" value="Appearance" style="rounded=0;whiteSpace=wrap;html=1;strokeWidth=2;fontSize=30;" vertex="1" parent="1">
          <mxGeometry x="1010" y="180" width="170" height="60" as="geometry" />
        </mxCell>
        <mxCell id="J0vHKWgux2NWpjz-rFp9-72" value="Figure" style="rounded=0;whiteSpace=wrap;html=1;strokeWidth=2;fontSize=30;" vertex="1" parent="1">
          <mxGeometry x="660" y="260" width="120" height="60" as="geometry" />
        </mxCell>
        <mxCell id="J0vHKWgux2NWpjz-rFp9-73" value="Image Editing" style="rounded=0;whiteSpace=wrap;html=1;strokeWidth=2;fontSize=30;" vertex="1" parent="1">
          <mxGeometry x="660" y="350" width="220" height="60" as="geometry" />
        </mxCell>
        <mxCell id="J0vHKWgux2NWpjz-rFp9-74" value="Type Set" style="rounded=0;whiteSpace=wrap;html=1;strokeWidth=2;fontSize=30;" vertex="1" parent="1">
          <mxGeometry x="660" y="440" width="160" height="60" as="geometry" />
        </mxCell>
        <mxCell id="J0vHKWgux2NWpjz-rFp9-77" value="" style="edgeStyle=orthogonalEdgeStyle;rounded=0;orthogonalLoop=1;jettySize=auto;html=1;fontSize=30;entryX=0;entryY=0.5;entryDx=0;entryDy=0;" edge="1" parent="1" target="J0vHKWgux2NWpjz-rFp9-66">
          <mxGeometry relative="1" as="geometry">
            <mxPoint x="510" y="160" as="sourcePoint" />
            <mxPoint x="650" y="250" as="targetPoint" />
            <Array as="points">
              <mxPoint x="580" y="160" />
              <mxPoint x="580" y="80" />
            </Array>
          </mxGeometry>
        </mxCell>
        <mxCell id="J0vHKWgux2NWpjz-rFp9-79" value="" style="edgeStyle=orthogonalEdgeStyle;rounded=0;orthogonalLoop=1;jettySize=auto;html=1;fontSize=30;entryX=0;entryY=0.5;entryDx=0;entryDy=0;exitX=1;exitY=0.5;exitDx=0;exitDy=0;" edge="1" parent="1" source="J0vHKWgux2NWpjz-rFp9-66" target="J0vHKWgux2NWpjz-rFp9-69">
          <mxGeometry relative="1" as="geometry">
            <mxPoint x="920" y="90" as="sourcePoint" />
            <mxPoint x="1020" y="140" as="targetPoint" />
            <Array as="points">
              <mxPoint x="970" y="80" />
              <mxPoint x="970" y="50" />
            </Array>
          </mxGeometry>
        </mxCell>
        <mxCell id="J0vHKWgux2NWpjz-rFp9-80" value="" style="edgeStyle=orthogonalEdgeStyle;rounded=0;orthogonalLoop=1;jettySize=auto;html=1;fontSize=30;entryX=0;entryY=0.5;entryDx=0;entryDy=0;exitX=1;exitY=0.5;exitDx=0;exitDy=0;" edge="1" parent="1" source="J0vHKWgux2NWpjz-rFp9-66" target="J0vHKWgux2NWpjz-rFp9-71">
          <mxGeometry relative="1" as="geometry">
            <mxPoint x="920" y="90.00000000000006" as="sourcePoint" />
            <mxPoint x="1020" y="140.00000000000006" as="targetPoint" />
            <Array as="points">
              <mxPoint x="970" y="80" />
              <mxPoint x="970" y="210" />
            </Array>
          </mxGeometry>
        </mxCell>
        <mxCell id="J0vHKWgux2NWpjz-rFp9-82" value="" style="edgeStyle=orthogonalEdgeStyle;rounded=0;orthogonalLoop=1;jettySize=auto;html=1;fontSize=30;entryX=0;entryY=0.5;entryDx=0;entryDy=0;" edge="1" parent="1" target="J0vHKWgux2NWpjz-rFp9-72">
          <mxGeometry relative="1" as="geometry">
            <mxPoint x="581" y="350" as="sourcePoint" />
            <mxPoint x="670" y="390" as="targetPoint" />
            <Array as="points">
              <mxPoint x="581" y="350" />
              <mxPoint x="620" y="350" />
              <mxPoint x="620" y="290" />
            </Array>
          </mxGeometry>
        </mxCell>
        <mxCell id="J0vHKWgux2NWpjz-rFp9-83" value="" style="edgeStyle=orthogonalEdgeStyle;rounded=0;orthogonalLoop=1;jettySize=auto;html=1;fontSize=30;entryX=0;entryY=0.5;entryDx=0;entryDy=0;exitX=1.003;exitY=0.617;exitDx=0;exitDy=0;exitPerimeter=0;" edge="1" parent="1" source="J0vHKWgux2NWpjz-rFp9-61" target="J0vHKWgux2NWpjz-rFp9-74">
          <mxGeometry relative="1" as="geometry">
            <mxPoint x="590" y="360" as="sourcePoint" />
            <mxPoint x="670" y="390" as="targetPoint" />
            <Array as="points">
              <mxPoint x="581" y="350" />
              <mxPoint x="620" y="350" />
              <mxPoint x="620" y="470" />
            </Array>
          </mxGeometry>
        </mxCell>
        <mxCell id="J0vHKWgux2NWpjz-rFp9-91" value="" style="edgeStyle=orthogonalEdgeStyle;rounded=0;orthogonalLoop=1;jettySize=auto;html=1;fontSize=30;" edge="1" parent="1" source="J0vHKWgux2NWpjz-rFp9-84" target="J0vHKWgux2NWpjz-rFp9-88">
          <mxGeometry relative="1" as="geometry" />
        </mxCell>
        <mxCell id="J0vHKWgux2NWpjz-rFp9-84" value="Subjects" style="rounded=0;whiteSpace=wrap;html=1;strokeWidth=2;fontSize=30;" vertex="1" parent="1">
          <mxGeometry x="660" y="570" width="120" height="60" as="geometry" />
        </mxCell>
        <mxCell id="J0vHKWgux2NWpjz-rFp9-101" value="" style="edgeStyle=orthogonalEdgeStyle;rounded=0;orthogonalLoop=1;jettySize=auto;html=1;fontSize=30;entryX=0;entryY=0.5;entryDx=0;entryDy=0;" edge="1" parent="1" source="J0vHKWgux2NWpjz-rFp9-85" target="J0vHKWgux2NWpjz-rFp9-95">
          <mxGeometry relative="1" as="geometry" />
        </mxCell>
        <mxCell id="J0vHKWgux2NWpjz-rFp9-85" value="Attractions" style="rounded=0;whiteSpace=wrap;html=1;strokeWidth=2;fontSize=30;" vertex="1" parent="1">
          <mxGeometry x="660" y="800" width="160" height="60" as="geometry" />
        </mxCell>
        <mxCell id="J0vHKWgux2NWpjz-rFp9-86" value="Family" style="rounded=0;whiteSpace=wrap;html=1;strokeWidth=2;fontSize=30;" vertex="1" parent="1">
          <mxGeometry x="890" y="480" width="120" height="60" as="geometry" />
        </mxCell>
        <mxCell id="J0vHKWgux2NWpjz-rFp9-87" value="Friends" style="rounded=0;whiteSpace=wrap;html=1;strokeWidth=2;fontSize=30;" vertex="1" parent="1">
          <mxGeometry x="890" y="550" width="120" height="60" as="geometry" />
        </mxCell>
        <mxCell id="J0vHKWgux2NWpjz-rFp9-88" value="Lovers" style="rounded=0;whiteSpace=wrap;html=1;strokeWidth=2;fontSize=30;" vertex="1" parent="1">
          <mxGeometry x="890" y="620" width="120" height="60" as="geometry" />
        </mxCell>
        <mxCell id="J0vHKWgux2NWpjz-rFp9-89" value="Landscape" style="rounded=0;whiteSpace=wrap;html=1;strokeWidth=2;fontSize=30;" vertex="1" parent="1">
          <mxGeometry x="890" y="690" width="180" height="60" as="geometry" />
        </mxCell>
        <mxCell id="J0vHKWgux2NWpjz-rFp9-92" value="" style="edgeStyle=orthogonalEdgeStyle;rounded=0;orthogonalLoop=1;jettySize=auto;html=1;fontSize=30;exitX=1;exitY=0.5;exitDx=0;exitDy=0;entryX=0;entryY=0.5;entryDx=0;entryDy=0;" edge="1" parent="1" source="J0vHKWgux2NWpjz-rFp9-84" target="J0vHKWgux2NWpjz-rFp9-87">
          <mxGeometry relative="1" as="geometry">
            <mxPoint x="790" y="610" as="sourcePoint" />
            <mxPoint x="900" y="660" as="targetPoint" />
          </mxGeometry>
        </mxCell>
        <mxCell id="J0vHKWgux2NWpjz-rFp9-93" value="" style="edgeStyle=orthogonalEdgeStyle;rounded=0;orthogonalLoop=1;jettySize=auto;html=1;fontSize=30;exitX=1;exitY=0.5;exitDx=0;exitDy=0;entryX=0;entryY=0.5;entryDx=0;entryDy=0;" edge="1" parent="1" source="J0vHKWgux2NWpjz-rFp9-84" target="J0vHKWgux2NWpjz-rFp9-89">
          <mxGeometry relative="1" as="geometry">
            <mxPoint x="800" y="620" as="sourcePoint" />
            <mxPoint x="910" y="670" as="targetPoint" />
          </mxGeometry>
        </mxCell>
        <mxCell id="J0vHKWgux2NWpjz-rFp9-94" value="" style="edgeStyle=orthogonalEdgeStyle;rounded=0;orthogonalLoop=1;jettySize=auto;html=1;fontSize=30;exitX=1;exitY=0.5;exitDx=0;exitDy=0;entryX=0;entryY=0.5;entryDx=0;entryDy=0;" edge="1" parent="1" source="J0vHKWgux2NWpjz-rFp9-84" target="J0vHKWgux2NWpjz-rFp9-86">
          <mxGeometry relative="1" as="geometry">
            <mxPoint x="810" y="630" as="sourcePoint" />
            <mxPoint x="920" y="680" as="targetPoint" />
          </mxGeometry>
        </mxCell>
        <mxCell id="J0vHKWgux2NWpjz-rFp9-95" value="Landmark" style="rounded=0;whiteSpace=wrap;html=1;strokeWidth=2;fontSize=30;" vertex="1" parent="1">
          <mxGeometry x="910" y="790" width="153" height="60" as="geometry" />
        </mxCell>
        <mxCell id="J0vHKWgux2NWpjz-rFp9-96" value="Parks" style="rounded=0;whiteSpace=wrap;html=1;strokeWidth=2;fontSize=30;" vertex="1" parent="1">
          <mxGeometry x="1100" y="790" width="120" height="60" as="geometry" />
        </mxCell>
        <mxCell id="J0vHKWgux2NWpjz-rFp9-97" value="Art &amp;amp; Entertainment" style="rounded=0;whiteSpace=wrap;html=1;strokeWidth=2;fontSize=30;" vertex="1" parent="1">
          <mxGeometry x="910" y="880" width="300" height="60" as="geometry" />
        </mxCell>
        <mxCell id="J0vHKWgux2NWpjz-rFp9-98" value="Food &amp;amp; Leisure" style="rounded=0;whiteSpace=wrap;html=1;strokeWidth=2;fontSize=30;" vertex="1" parent="1">
          <mxGeometry x="1260" y="790" width="240" height="60" as="geometry" />
        </mxCell>
        <mxCell id="J0vHKWgux2NWpjz-rFp9-99" value="School" style="rounded=0;whiteSpace=wrap;html=1;strokeWidth=2;fontSize=30;" vertex="1" parent="1">
          <mxGeometry x="1250" y="880" width="120" height="60" as="geometry" />
        </mxCell>
        <mxCell id="J0vHKWgux2NWpjz-rFp9-100" value="Shopping Mall" style="rounded=0;whiteSpace=wrap;html=1;strokeWidth=2;fontSize=30;" vertex="1" parent="1">
          <mxGeometry x="1410" y="880" width="215" height="60" as="geometry" />
        </mxCell>
        <mxCell id="J0vHKWgux2NWpjz-rFp9-102" value="" style="edgeStyle=orthogonalEdgeStyle;rounded=0;orthogonalLoop=1;jettySize=auto;html=1;fontSize=30;entryX=0;entryY=0.5;entryDx=0;entryDy=0;exitX=1;exitY=0.5;exitDx=0;exitDy=0;" edge="1" parent="1" source="J0vHKWgux2NWpjz-rFp9-85" target="J0vHKWgux2NWpjz-rFp9-97">
          <mxGeometry relative="1" as="geometry">
            <mxPoint x="830" y="840" as="sourcePoint" />
            <mxPoint x="920" y="830" as="targetPoint" />
          </mxGeometry>
        </mxCell>
        <mxCell id="J0vHKWgux2NWpjz-rFp9-103" value="" style="edgeStyle=orthogonalEdgeStyle;rounded=0;orthogonalLoop=1;jettySize=auto;html=1;fontSize=30;entryX=0.5;entryY=0;entryDx=0;entryDy=0;exitX=1;exitY=0.5;exitDx=0;exitDy=0;" edge="1" parent="1" source="J0vHKWgux2NWpjz-rFp9-85" target="J0vHKWgux2NWpjz-rFp9-96">
          <mxGeometry relative="1" as="geometry">
            <mxPoint x="840" y="850" as="sourcePoint" />
            <mxPoint x="930" y="840" as="targetPoint" />
            <Array as="points">
              <mxPoint x="860" y="830" />
              <mxPoint x="860" y="770" />
              <mxPoint x="1160" y="770" />
            </Array>
          </mxGeometry>
        </mxCell>
        <mxCell id="J0vHKWgux2NWpjz-rFp9-104" value="" style="edgeStyle=orthogonalEdgeStyle;rounded=0;orthogonalLoop=1;jettySize=auto;html=1;fontSize=30;entryX=0.5;entryY=0;entryDx=0;entryDy=0;exitX=1;exitY=0.5;exitDx=0;exitDy=0;" edge="1" parent="1" source="J0vHKWgux2NWpjz-rFp9-85" target="J0vHKWgux2NWpjz-rFp9-98">
          <mxGeometry relative="1" as="geometry">
            <mxPoint x="850" y="860" as="sourcePoint" />
            <mxPoint x="940" y="850" as="targetPoint" />
            <Array as="points">
              <mxPoint x="860" y="830" />
              <mxPoint x="860" y="770" />
              <mxPoint x="1380" y="770" />
            </Array>
          </mxGeometry>
        </mxCell>
        <mxCell id="J0vHKWgux2NWpjz-rFp9-105" value="" style="edgeStyle=orthogonalEdgeStyle;rounded=0;orthogonalLoop=1;jettySize=auto;html=1;fontSize=30;entryX=0.5;entryY=1;entryDx=0;entryDy=0;exitX=1;exitY=0.5;exitDx=0;exitDy=0;" edge="1" parent="1" source="J0vHKWgux2NWpjz-rFp9-85" target="J0vHKWgux2NWpjz-rFp9-99">
          <mxGeometry relative="1" as="geometry">
            <mxPoint x="860" y="870" as="sourcePoint" />
            <mxPoint x="950" y="860" as="targetPoint" />
            <Array as="points">
              <mxPoint x="860" y="830" />
              <mxPoint x="860" y="960" />
              <mxPoint x="1310" y="960" />
            </Array>
          </mxGeometry>
        </mxCell>
        <mxCell id="J0vHKWgux2NWpjz-rFp9-106" value="" style="edgeStyle=orthogonalEdgeStyle;rounded=0;orthogonalLoop=1;jettySize=auto;html=1;fontSize=30;entryX=0.75;entryY=1;entryDx=0;entryDy=0;exitX=1;exitY=0.5;exitDx=0;exitDy=0;" edge="1" parent="1" source="J0vHKWgux2NWpjz-rFp9-85" target="J0vHKWgux2NWpjz-rFp9-100">
          <mxGeometry relative="1" as="geometry">
            <mxPoint x="870" y="880" as="sourcePoint" />
            <mxPoint x="960" y="870" as="targetPoint" />
            <Array as="points">
              <mxPoint x="860" y="830" />
              <mxPoint x="860" y="960" />
              <mxPoint x="1571" y="960" />
            </Array>
          </mxGeometry>
        </mxCell>
        <mxCell id="J0vHKWgux2NWpjz-rFp9-108" value="" style="edgeStyle=orthogonalEdgeStyle;rounded=0;orthogonalLoop=1;jettySize=auto;html=1;fontSize=30;entryX=0;entryY=0.5;entryDx=0;entryDy=0;exitX=1;exitY=0.5;exitDx=0;exitDy=0;" edge="1" parent="1" source="J0vHKWgux2NWpjz-rFp9-62" target="J0vHKWgux2NWpjz-rFp9-85">
          <mxGeometry relative="1" as="geometry">
            <mxPoint x="880" y="890" as="sourcePoint" />
            <mxPoint x="970" y="880" as="targetPoint" />
          </mxGeometry>
        </mxCell>
        <mxCell id="J0vHKWgux2NWpjz-rFp9-109" value="Websites" style="rounded=0;whiteSpace=wrap;html=1;strokeWidth=2;fontSize=30;" vertex="1" parent="1">
          <mxGeometry x="660" y="900" width="150" height="60" as="geometry" />
        </mxCell>
        <mxCell id="J0vHKWgux2NWpjz-rFp9-110" value="Books" style="rounded=0;whiteSpace=wrap;html=1;strokeWidth=2;fontSize=30;" vertex="1" parent="1">
          <mxGeometry x="660" y="980" width="150" height="60" as="geometry" />
        </mxCell>
        <mxCell id="J0vHKWgux2NWpjz-rFp9-111" value="FAQ" style="rounded=0;whiteSpace=wrap;html=1;strokeWidth=2;fontSize=30;" vertex="1" parent="1">
          <mxGeometry x="660" y="1070" width="150" height="60" as="geometry" />
        </mxCell>
        <mxCell id="J0vHKWgux2NWpjz-rFp9-112" value="Why me" style="rounded=0;whiteSpace=wrap;html=1;strokeWidth=2;fontSize=30;" vertex="1" parent="1">
          <mxGeometry x="660" y="1150" width="150" height="60" as="geometry" />
        </mxCell>
        <mxCell id="J0vHKWgux2NWpjz-rFp9-116" value="" style="edgeStyle=orthogonalEdgeStyle;rounded=0;orthogonalLoop=1;jettySize=auto;html=1;fontSize=30;entryX=0;entryY=0.5;entryDx=0;entryDy=0;exitX=1;exitY=0.5;exitDx=0;exitDy=0;" edge="1" parent="1" source="J0vHKWgux2NWpjz-rFp9-63" target="J0vHKWgux2NWpjz-rFp9-110">
          <mxGeometry relative="1" as="geometry">
            <mxPoint x="560" y="940" as="sourcePoint" />
            <mxPoint x="670" y="940" as="targetPoint" />
          </mxGeometry>
        </mxCell>
        <mxCell id="J0vHKWgux2NWpjz-rFp9-125" value="&lt;h1&gt;&lt;font style=&quot;font-size: 50px&quot;&gt;Information Architecture&lt;/font&gt;&lt;/h1&gt;" style="text;strokeColor=none;fillColor=none;html=1;fontSize=24;fontStyle=1;verticalAlign=middle;align=center;rotation=-90;" vertex="1" parent="1">
          <mxGeometry x="20" y="570" width="100" height="40" as="geometry" />
        </mxCell>
      </root>
    </mxGraphModel>
  </diagram>
</mxfile>
